<?xml version="1.0" encoding="UTF-8" standalone="no"?>
<!-- Generator: Adobe Illustrator 19.0.0, SVG Export Plug-In . SVG Version: 6.00 Build 0)  -->

<svg
   xmlns:dc="http://purl.org/dc/elements/1.1/"
   xmlns:cc="http://creativecommons.org/ns#"
   xmlns:rdf="http://www.w3.org/1999/02/22-rdf-syntax-ns#"
   xmlns:svg="http://www.w3.org/2000/svg"
   xmlns="http://www.w3.org/2000/svg"
   xmlns:sodipodi="http://sodipodi.sourceforge.net/DTD/sodipodi-0.dtd"
   xmlns:inkscape="http://www.inkscape.org/namespaces/inkscape"
   version="1.1"
   id="Logo"
   x="0px"
   y="0px"
   viewBox="0 0 595.3 841.9"
   sodipodi:docname="loading.svg"
   inkscape:version="0.92.1 r15371">
  <metadata
     id="metadata12">
    <rdf:RDF>
      <cc:Work
         rdf:about="">
        <dc:format>image/svg+xml</dc:format>
        <dc:type
           rdf:resource="http://purl.org/dc/dcmitype/StillImage" />
      </cc:Work>
    </rdf:RDF>
  </metadata>
  <defs
     id="defs10" />
  <sodipodi:namedview
     pagecolor="#ffffff"
     bordercolor="#666666"
     borderopacity="1"
     objecttolerance="10"
     gridtolerance="10"
     guidetolerance="10"
     inkscape:pageopacity="0"
     inkscape:pageshadow="2"
     inkscape:window-width="888"
     inkscape:window-height="480"
     id="namedview8"
     showgrid="false"
     inkscape:zoom="0.28031832"
     inkscape:cx="297.64999"
     inkscape:cy="420.95001"
     inkscape:window-x="0"
     inkscape:window-y="0"
     inkscape:window-maximized="0"
     inkscape:current-layer="Logo" />
  <path
     style="fill:none;stroke:#80ff00;stroke-width:4;stroke-miterlimit:5"
     inkscape:connector-curvature="0"
     d="m 481.7,447.4 c -5.5,24.4 -11.4,48.8 -18.9,72.7 -1.3,4.2 -2.5,8 -4.5,11.6 3,-5.2 -2.5,2 -4.1,3.5 -10.2,9.8 -20.7,19.3 -31.2,28.7 -23,20.6 -46.2,42.1 -71.7,59.7 -1.7,1.1 -3.4,2.2 -5.1,3.2 -4.3,2.5 4.3,-1.2 -2,0.7 -5.6,1.7 -11.6,2.4 -17.5,3 -19.2,2.2 -38.6,2.7 -57.9,2.6 -10.9,-0.1 -25.2,1.3 -35,-4.2 -16.4,-9.1 -32.6,-29.4 -39.6,-46.6 -4.2,-10.3 -3.8,-22.8 -4.7,-34.9 -1.4,-19 -2.2,-38.1 -2.5,-57.2 -0.2,-14.5 -0.6,-29.6 1.4,-44.1 2.8,-19.8 26.1,-27.1 42.8,-32.2 31.8,-9.6 69.82296,-2.83927 102.66888,-1.49184 23.52826,0.47323 22.1821,4.45186 25.16224,6.15257 C 362.1148,422.8148 361.6,426.6 362.2,431.4 c 3.2,27.4 3.4,55.5 2.1,83 -0.4,7.9 -0.6,16 -3,23.5 1.6,-5.1 -5,5 -6.6,6.9 -6,7.1 -12.4,13.7 -19,20.2 -8.2,8.2 -14.2,14.4 -25.7,14.9 -15.1,0.6 -31,-0.2 -45.9,-3.2 -3.6,-1.2 -3.6,-0.9 -0.1,1.1 -2.8,-2.2 -5.1,-5.3 -7.4,-8 -4.9,-5.8 -8.9,-12.5 -12.9,-18.9 -5.4,-8.7 -5.6,-17.9 -6.3,-28.8 -1.4,-19.8 -8.6,-59.5 18.9,-59.7 12.8,-0.1 25.7,0.2 38.5,0.8 5.75408,0.3 12.07704,-1.20665 18.17704,-0.10665 6.28663,5.48361 2.32425,18.12559 0.42296,37.60665 -1.2,13.3 -1.1,16.4 -11.7,21.4 -22.1,10.4 -2.6,43 19.3,32.6 30.9,-14.6 31.4,-48.9 31.6,-78.9 0.1,-12.5 -0.4,-29 -9.9,-38.4 -10.7,-10.6 -29.8,-10.7 -43.7,-11.8 -15,-1.2 -30.2,-1.2 -45.2,-1.1 -20.7,0.1 -36.5,13.6 -48.3,29.5 -7.3,9.8 -6.2,27.7 -6.5,39.1 -0.4,17.4 0.6,34.9 3.1,52.1 3.7,25.2 26.7,61.5 52.4,68.1 29.9,7.7 70.1,10.5 95.1,-9.9 22.2,-18.2 47.5,-41 51.2,-70.7 3.9,-31.1 2.7,-63.4 0.1,-94.6 -2.1,-25.3 -4.1,-48.2 -31.3,-56.5 -32,-9.8 -69.3,-10.2 -102.5,-10.1 -36.8,0.1 -82.8,10.2 -105.5,41.8 -17.5,24.3 -12.8,62.4 -12,90.6 0.8,29 -1.2,65.3 10,92.6 12,29.3 41.7,66.8 75,72 34.2,5.4 71.1,3.1 105.2,-1.8 26.1,-3.8 43.1,-18.9 63,-35.2 28.9,-23.7 59.9,-48.1 84.9,-76 11.6,-12.9 15,-34.8 19.3,-50.9 4.2,-15.7 8,-31.4 11.6,-47.2 5.1,-23.9 -31.5,-33.8 -36.9,-10"
     class="reka"
     id="XMLID_6_"
     sodipodi:nodetypes="cccccccccccccccccccccccccccccccccccccccccccccccccccccccccc" />
  <path
     style="fill:none;stroke:#80ff00;stroke-width:4;stroke-miterlimit:5"
     inkscape:connector-curvature="0"
     d="m 197,358.3 c -4.6,-54.3 -9.1,-108.7 -13.7,-163 -2,-24.2 -39.9,-24.1 -37.9,0.2 4.6,54.3 9.1,108.7 13.7,163 2.1,24.2 40,24.2 37.9,-0.2"
     class="reka"
     id="XMLID_5_" />
  <path
     style="fill:none;stroke:#80ff00;stroke-width:4;stroke-miterlimit:5"
     inkscape:connector-curvature="0"
     d="m 254.5,343.6 c -2.4,-63.9 -4.7,-127.9 -7.1,-191.8 -0.9,-24.4 -38.8,-24.2 -37.9,0.2 2.3,63.9 4.7,127.9 7.1,191.8 0.9,24.4 38.8,24.2 37.9,-0.2"
     class="reka"
     id="XMLID_4_" />
  <path
     style="fill:none;stroke:#80ff00;stroke-width:4;stroke-miterlimit:5"
     inkscape:connector-curvature="0"
     d="m 316.9,336.2 c -0.7,-71.1 -1.3,-142.1 -2,-213.2 -0.2,-24.4 -38.1,-24.2 -37.9,0.2 0.7,71.1 1.3,142.1 2,213.2 0.2,24.4 38.1,24.2 37.9,-0.2"
     class="reka"
     id="XMLID_3_" />
  <path
     style="fill:none;stroke:#80ff00;stroke-width:4;stroke-miterlimit:5"
     inkscape:connector-curvature="0"
     d="m 384.8,345.4 c 3,-63.9 6,-127.8 8.9,-191.7 1.1,-24.4 -36.8,-24.1 -37.9,0.2 -3,63.9 -6,127.8 -8.9,191.7 -1.2,24.5 36.7,24.1 37.9,-0.2"
     class="reka"
     id="XMLID_1_" />
</svg>
